<?xml version="1.0" standalone="no"?>
<!DOCTYPE svg PUBLIC "-//W3C//DTD SVG 20010904//EN"
 "http://www.w3.org/TR/2001/REC-SVG-20010904/DTD/svg10.dtd">
<svg version="1.0" xmlns="http://www.w3.org/2000/svg"
 width="512.000000pt" height="512.000000pt" viewBox="0 0 512.000000 512.000000"
 preserveAspectRatio="xMidYMid meet">

<g transform="translate(0.000000,512.000000) scale(0.100000,-0.100000)"
fill="#000000" stroke="none">
<path d="M2321 5110 c-497 -48 -990 -251 -1376 -565 -114 -92 -294 -274 -384
-387 -229 -287 -417 -675 -495 -1023 -49 -218 -60 -325 -60 -575 0 -250 11
-357 60 -575 79 -355 272 -749 509 -1040 92 -114 274 -294 387 -384 287 -230
676 -417 1023 -495 282 -63 186 -60 1728 -63 l1407 -4 0 216 0 215 -566 2
-566 3 114 85 c459 344 805 870 942 1432 57 235 71 353 70 608 0 127 -5 264
-12 315 -42 297 -119 552 -246 810 -134 273 -283 480 -498 692 -211 209 -404
346 -673 478 -252 124 -486 197 -765 240 -126 19 -468 27 -599 15z m389 -436
c175 -41 340 -172 419 -334 54 -110 75 -209 68 -320 -15 -235 -141 -429 -348
-535 -94 -48 -177 -67 -289 -67 -344 0 -615 256 -637 602 -7 111 14 210 68
320 78 160 243 293 414 334 80 19 224 19 305 0z m-1416 -1034 c220 -56 396
-226 462 -445 14 -44 18 -92 18 -180 0 -103 -4 -130 -27 -193 -35 -101 -81
-175 -152 -247 -224 -226 -570 -256 -827 -72 -127 92 -221 234 -253 386 -96
459 326 867 779 751z m2840 0 c283 -72 485 -329 486 -617 1 -364 -319 -665
-679 -639 -387 28 -659 378 -587 756 67 358 429 590 780 500z m-1461 -902 c22
-14 51 -43 65 -65 23 -33 27 -48 27 -113 0 -65 -4 -80 -27 -113 -14 -22 -43
-51 -65 -65 -33 -23 -48 -27 -113 -27 -65 0 -80 4 -113 27 -61 41 -91 93 -95
164 -6 92 36 165 120 208 51 26 152 18 201 -16z m-793 -778 c152 -51 305 -183
373 -322 53 -110 71 -198 64 -321 -11 -209 -108 -380 -283 -496 -277 -186
-655 -123 -858 143 -277 362 -97 886 346 1006 97 27 262 22 358 -10z m1714 10
c444 -113 628 -642 350 -1006 -128 -167 -348 -266 -553 -249 -261 22 -473 189
-562 442 -30 85 -37 242 -15 335 59 247 273 451 516 491 69 12 192 6 264 -13z"/>
</g>
</svg>
